ffmpeg started on 2016-12-03 at 20:14:58
Report written to "Output/x264/results/ffmpeg/crowd_run_2160p50ultrafast1500k.log"
Command line:
Tools/ffmpeg/ffmpeg -benchmark -y -i Input/y4m/crowd_run_2160p50.y4m -c:v libx264 -preset ultrafast -b:v 1500k -an Output/x264/encoded/crowd_run_2160p50ultrafast1500k.mkv
ffmpeg version N-82227-gdb23fde Copyright (c) 2000-2016 the FFmpeg developers
  built with gcc 5.4.0 (Ubuntu 5.4.0-6ubuntu1~16.04.2) 20160609
  configuration: --prefix=/home/jaroslav/ffmpeg_build --pkg-config-flags=--static --extra-cflags=-I/home/jaroslav/ffmpeg_build/include --extra-ldflags=-L/home/jaroslav/ffmpeg_build/lib --bindir=/home/jaroslav/bin --enable-gpl --enable-libass --enable-libfdk-aac --enable-libfreetype --enable-libmp3lame --enable-libopus --enable-libtheora --enable-libvorbis --enable-libvpx --enable-libx264 --enable-libx265 --enable-nvenc --enable-libmfx --enable-libxvid --enable-libgsm --enable-libopencore-amrnb --enable-version3 --enable-nonfree
  libavutil      55. 35.100 / 55. 35.100
  libavcodec     57. 66.101 / 57. 66.101
  libavformat    57. 57.100 / 57. 57.100
  libavdevice    57.  2.100 / 57.  2.100
  libavfilter     6. 66.100 /  6. 66.100
  libswscale      4.  3.100 /  4.  3.100
  libswresample   2.  4.100 /  2.  4.100
  libpostproc    54.  2.100 / 54.  2.100
Input #0, yuv4mpegpipe, from 'Input/y4m/crowd_run_2160p50.y4m':
  Duration: 00:00:10.00, start: 0.000000, bitrate: 4976642 kb/s
    Stream #0:0: Video: rawvideo (I420 / 0x30323449), yuv420p(progressive), 3840x2160, SAR 1:1 DAR 16:9, 50 fps, 50 tbr, 50 tbn, 50 tbc
[libx264 @ 0x39051c0] using SAR=1/1
[libx264 @ 0x39051c0] using cpu capabilities: MMX2 SSE2Fast SSSE3 SSE4.2 AVX FMA3 AVX2 LZCNT BMI2
[libx264 @ 0x39051c0] profile Constrained Baseline, level 5.2
[libx264 @ 0x39051c0] 264 - core 148 - H.264/MPEG-4 AVC codec - Copyleft 2003-2016 - http://www.videolan.org/x264.html - options: cabac=0 ref=1 deblock=0:0:0 analyse=0:0 me=dia subme=0 psy=1 psy_rd=1.00:0.00 mixed_ref=0 me_range=16 chroma_me=1 trellis=0 8x8dct=0 cqm=0 deadzone=21,11 fast_pskip=1 chroma_qp_offset=0 threads=6 lookahead_threads=1 sliced_threads=0 nr=0 decimate=1 interlaced=0 bluray_compat=0 constrained_intra=0 bframes=0 weightp=0 keyint=250 keyint_min=25 scenecut=0 intra_refresh=0 rc=abr mbtree=0 bitrate=1500 ratetol=1.0 qcomp=0.60 qpmin=0 qpmax=69 qpstep=4 ip_ratio=1.40 aq=0
Output #0, matroska, to 'Output/x264/encoded/crowd_run_2160p50ultrafast1500k.mkv':
  Metadata:
    encoder         : Lavf57.57.100
    Stream #0:0: Video: h264 (libx264) (H264 / 0x34363248), yuv420p, 3840x2160 [SAR 1:1 DAR 16:9], q=-1--1, 1500 kb/s, 50 fps, 1k tbn, 50 tbc
    Metadata:
      encoder         : Lavc57.66.101 libx264
    Side data:
      cpb: bitrate max/min/avg: 0/0/1500000 buffer size: 0 vbv_delay: -1
Stream mapping:
  Stream #0:0 -> #0:0 (rawvideo (native) -> h264 (libx264))
Press [q] to stop, [?] for help
frame=   21 fps=0.0 q=66.0 size=       1kB time=00:00:00.26 bitrate=  22.4kbits/s speed=0.501x    frame=   24 fps= 21 q=64.0 size=       1kB time=00:00:00.32 bitrate=  18.2kbits/s speed=0.275x    frame=   25 fps= 15 q=64.0 size=       1kB time=00:00:00.34 bitrate=  17.2kbits/s speed=0.204x    frame=   29 fps= 13 q=67.0 size=       1kB time=00:00:00.42 bitrate=  13.9kbits/s speed=0.192x    frame=   43 fps= 15 q=66.0 size=       1kB time=00:00:00.70 bitrate=   8.4kbits/s speed=0.24x    frame=   56 fps= 16 q=66.0 size=       1kB time=00:00:00.96 bitrate=   6.1kbits/s speed=0.266x    frame=   60 fps= 14 q=66.0 size=       1kB time=00:00:01.04 bitrate=   5.6kbits/s speed=0.236x    frame=   66 fps= 13 q=66.0 size=       1kB time=00:00:01.16 bitrate=   5.0kbits/s speed=0.236x    frame=   72 fps= 13 q=65.0 size=       1kB time=00:00:01.28 bitrate=   4.6kbits/s speed=0.236x    frame=   77 fps= 13 q=66.0 size=       1kB time=00:00:01.38 bitrate=   4.2kbits/s speed=0.23x    frame=   79 fps= 12 q=66.0 size=       1kB time=00:00:01.42 bitrate=   4.1kbits/s speed=0.213x    frame=   83 fps= 11 q=66.0 size=       1kB time=00:00:01.50 bitrate=   3.9kbits/s speed=0.194x    frame=   89 fps= 11 q=65.0 size=       1kB time=00:00:01.62 bitrate=   3.6kbits/s speed=0.197x    frame=   92 fps= 10 q=66.0 size=       1kB time=00:00:01.68 bitrate=   3.5kbits/s speed=0.187x    frame=   99 fps= 10 q=66.0 size=       1kB time=00:00:01.82 bitrate=   3.2kbits/s speed=0.191x    frame=  104 fps= 10 q=65.0 size=       1kB time=00:00:01.92 bitrate=   3.0kbits/s speed=0.188x    frame=  105 fps=9.8 q=65.0 size=       1kB time=00:00:01.94 bitrate=   3.0kbits/s speed=0.181x    frame=  109 fps=9.4 q=65.0 size=       1kB time=00:00:02.02 bitrate=   2.9kbits/s speed=0.175x    frame=  115 fps=9.2 q=66.0 size=       1kB time=00:00:02.14 bitrate=   2.7kbits/s speed=0.171x    frame=  119 fps=9.1 q=65.0 size=       1kB time=00:00:02.22 bitrate=   2.6kbits/s speed=0.17x    frame=  121 fps=8.9 q=65.0 size=       1kB time=00:00:02.26 bitrate=   2.6kbits/s speed=0.166x    frame=  123 fps=8.6 q=65.0 size=       1kB time=00:00:02.30 bitrate=   2.5kbits/s speed=0.162x    frame=  126 fps=8.4 q=65.0 size=       1kB time=00:00:02.36 bitrate=   2.5kbits/s speed=0.157x    frame=  136 fps=8.7 q=65.0 size=       1kB time=00:00:02.56 bitrate=   2.3kbits/s speed=0.164x    frame=  139 fps=8.6 q=65.0 size=       1kB time=00:00:02.62 bitrate=   2.2kbits/s speed=0.162x    frame=  142 fps=8.4 q=66.0 size=       1kB time=00:00:02.68 bitrate=   2.2kbits/s speed=0.159x    frame=  148 fps=8.4 q=66.0 size=       1kB time=00:00:02.80 bitrate=   2.1kbits/s speed=0.16x    frame=  161 fps=8.9 q=66.0 size=       1kB time=00:00:03.06 bitrate=   1.9kbits/s speed=0.17x    frame=  180 fps=9.7 q=66.0 size=       1kB time=00:00:03.44 bitrate=   1.7kbits/s speed=0.185x    frame=  216 fps= 11 q=66.0 size=       1kB time=00:00:04.16 bitrate=   1.4kbits/s speed=0.218x    frame=  266 fps= 14 q=66.0 size=     951kB time=00:00:05.16 bitrate=1510.0kbits/s speed=0.264x    frame=  316 fps= 16 q=66.0 size=     951kB time=00:00:06.16 bitrate=1264.9kbits/s speed=0.307x    frame=  366 fps= 18 q=65.0 size=     951kB time=00:00:07.16 bitrate=1088.3kbits/s speed=0.348x    frame=  416 fps= 20 q=66.0 size=     951kB time=00:00:08.16 bitrate= 954.9kbits/s speed=0.387x    frame=  466 fps= 22 q=66.0 size=     951kB time=00:00:09.16 bitrate= 850.7kbits/s speed=0.425x    frame=  500 fps= 23 q=-1.0 Lsize=    1893kB time=00:00:09.98 bitrate=1553.6kbits/s speed=0.454x    
video:1889kB audio:0kB subtitle:0kB other streams:0kB global headers:0kB muxing overhead: 0.222805%
bench: utime=17.532s
bench: maxrss=367736kB
[libx264 @ 0x39051c0] frame I:2     Avg QP:51.00  size: 58967
[libx264 @ 0x39051c0] frame P:498   Avg QP:51.00  size:  3645
[libx264 @ 0x39051c0] mb I  I16..4: 100.0%  0.0%  0.0%
[libx264 @ 0x39051c0] mb P  I16..4:  1.6%  0.0%  0.0%  P16..4:  2.7%  0.0%  0.0%  0.0%  0.0%    skip:95.7%
[libx264 @ 0x39051c0] final ratefactor: 59.24
[libx264 @ 0x39051c0] coded y,uvDC,uvAC intra: 0.6% 12.3% 0.0% inter: 0.1% 0.1% 0.0%
[libx264 @ 0x39051c0] i16 v,h,dc,p: 70% 20%  8%  3%
[libx264 @ 0x39051c0] i8c dc,h,v,p: 99%  0%  1%  0%
[libx264 @ 0x39051c0] kb/s:1546.70
